<svg width="593" height="449" viewBox="0 0 593 449" version="1.1" xmlns="http://www.w3.org/2000/svg" xmlns:xlink="http://www.w3.org/1999/xlink">
<title>Group 2</title>
<desc>Created using Figma</desc>
<g id="Canvas" transform="translate(682 -170)">
<g id="Group 2">
<g id="Ellipse">
<use xlink:href="#path0_fill" transform="translate(-682 142.5)" fill="#94DAD5"/>
</g>
<g id="Group 2">
<g id="Rectangle 4">
<use xlink:href="#path1_fill" transform="translate(-258.353 305.896)" fill="#FAC08C"/>
</g>
<g id="Rectangle 4.3">
<use xlink:href="#path2_fill" transform="translate(-250.546 390.107)" fill="#FAC08C"/>
</g>
<g id="Rectangle 4.1">
<use xlink:href="#path3_fill" transform="translate(-254.353 348.307)" fill="#FFFFFF"/>
</g>
<g id="Ellipse 2.5">
<use xlink:href="#path4_fill" transform="translate(-261 267.095)" fill="#E6E7E9"/>
</g>
<g id="Ellipse 2.4">
<use xlink:href="#path5_fill" transform="translate(-260.637 267.46)" fill="#FFFFFF"/>
</g>
<g id="Ellipse 2.3">
<use xlink:href="#path6_fill" transform="translate(-254.754 266.423)" fill="#E6E7E9"/>
</g>
<g id="Ellipse 2.2">
<use xlink:href="#path7_fill" transform="translate(-252.653 266)" fill="#FFFFFF"/>
</g>
<g id="Ellipse 2.1">
<use xlink:href="#path8_fill" transform="translate(-244.249 272.348)" fill="#E6E7E9"/>
</g>
<g id="Ellipse 2">
<use xlink:href="#path9_fill" transform="translate(-244.249 277.003)" fill="#FFFFFF"/>
</g>
<g id="Rectangle 4.2">
<use xlink:href="#path10_fill" transform="translate(-254.356 348.698)" fill="#E6E7E9"/>
</g>
<g id="Rectangle 5">
<use xlink:href="#path11_fill" transform="matrix(0.817424 -0.576037 0.571116 0.820869 -207.235 297.274)" fill="#E6E7E9"/>
</g>
</g>
<g id="Group">
<g id="Rectangle 4">
<use xlink:href="#path12_fill" transform="translate(-551 339.988)" fill="#1A6A75"/>
</g>
<g id="Rectangle 4.1">
<use xlink:href="#path13_fill" transform="translate(-551 327)" fill="#4BABC1"/>
</g>
<g id="Rectangle 4.4">
<use xlink:href="#path14_fill" transform="translate(-516.861 309.72)" fill="#F5F5F5"/>
</g>
<g id="Rectangle 4.3">
<use xlink:href="#path15_fill" transform="translate(-533.582 309.72)" fill="#FFFFFF"/>
</g>
<g id="Rectangle 4.8">
<use xlink:href="#path16_fill" transform="translate(-440.221 309.721)" fill="#E6E7E9"/>
<use xlink:href="#path17_fill" transform="translate(-440.221 309.721)" fill="#E6E7E9"/>
</g>
<g id="Rectangle 5">
<use xlink:href="#path18_fill" transform="translate(-533.582 461.057)" fill="#C4C4C4"/>
</g>
<g id="Rectangle 4.5">
<use xlink:href="#path19_fill" transform="matrix(-1 0 0 1 -325.959 309)" fill="#F5F5F5"/>
</g>
<g id="Rectangle 4.6">
<use xlink:href="#path20_fill" transform="matrix(-1 0 0 1 -309.238 309)" fill="#F5F5F5"/>
<use xlink:href="#path21_fill" transform="matrix(-1 0 0 1 -309.238 309)" fill="#F5F5F5"/>
</g>
<g id="Rectangle 5.1">
<use xlink:href="#path22_fill" transform="matrix(-1 0 0 1 -309 460)" fill="#C4C4C4"/>
</g>
<g id="Rectangle 4.7">
<use xlink:href="#path23_fill" transform="matrix(-1 0 0 1 -309 309)" fill="#E6E7E9"/>
</g>
<g id="Rectangle 6">
<use xlink:href="#path24_fill" transform="translate(-505.42 321.934)" fill="#E6E7E9"/>
</g>
<g id="Rectangle 6.17">
<use xlink:href="#path25_fill" transform="translate(-402.598 321.972)" fill="#E6E7E9"/>
</g>
<g id="Rectangle 6.19">
<use xlink:href="#path26_fill" transform="translate(-402.598 329.899)" fill="#E6E7E9"/>
</g>
<g id="Rectangle 6.1">
<use xlink:href="#path27_fill" transform="translate(-505.713 348.635)" fill="#E6E7E9"/>
</g>
<g id="Rectangle 6.2">
<use xlink:href="#path28_fill" transform="translate(-505.713 354.401)" fill="#E6E7E9"/>
</g>
<g id="Rectangle 6.3">
<use xlink:href="#path29_fill" transform="translate(-505.713 360.166)" fill="#E6E7E9"/>
</g>
<g id="Rectangle 6.4">
<use xlink:href="#path30_fill" transform="translate(-505.713 365.931)" fill="#E6E7E9"/>
</g>
<g id="Rectangle 6.5">
<use xlink:href="#path31_fill" transform="translate(-505.713 371.696)" fill="#E6E7E9"/>
</g>
<g id="Rectangle 6.6">
<use xlink:href="#path32_fill" transform="translate(-505.713 377.461)" fill="#E6E7E9"/>
</g>
<g id="Rectangle 6.7">
<use xlink:href="#path33_fill" transform="translate(-505.713 383.227)" fill="#E6E7E9"/>
</g>
<g id="Rectangle 6.8">
<use xlink:href="#path34_fill" transform="translate(-505.713 388.992)" fill="#E6E7E9"/>
</g>
<g id="Rectangle 6.20">
<use xlink:href="#path30_fill" transform="translate(-505.713 414.935)" fill="#E6E7E9"/>
</g>
<g id="Rectangle 6.21">
<use xlink:href="#path31_fill" transform="translate(-505.713 420.701)" fill="#E6E7E9"/>
</g>
<g id="Rectangle 6.22">
<use xlink:href="#path32_fill" transform="translate(-505.713 426.466)" fill="#E6E7E9"/>
</g>
<g id="Rectangle 6.23">
<use xlink:href="#path33_fill" transform="translate(-505.713 432.231)" fill="#E6E7E9"/>
</g>
<g id="Rectangle 6.24">
<use xlink:href="#path34_fill" transform="translate(-505.713 437.996)" fill="#E6E7E9"/>
</g>
<g id="Rectangle 6.9">
<use xlink:href="#path35_fill" transform="translate(-402.598 388.992)" fill="#E6E7E9"/>
</g>
<g id="Rectangle 6.10">
<use xlink:href="#path36_fill" transform="translate(-402.598 394.757)" fill="#E6E7E9"/>
</g>
<g id="Rectangle 6.25">
<use xlink:href="#path35_fill" transform="translate(-402.598 365.931)" fill="#E6E7E9"/>
</g>
<g id="Rectangle 6.26">
<use xlink:href="#path36_fill" transform="translate(-402.598 371.696)" fill="#E6E7E9"/>
</g>
<g id="Rectangle 6.27">
<use xlink:href="#path35_fill" transform="translate(-402.598 354.401)" fill="#E6E7E9"/>
</g>
<g id="Rectangle 6.28">
<use xlink:href="#path37_fill" transform="translate(-402.598 360.166)" fill="#E6E7E9"/>
</g>
<g id="Rectangle 6.11">
<use xlink:href="#path38_fill" transform="translate(-402.598 400.522)" fill="#E6E7E9"/>
</g>
<g id="Rectangle 6.12">
<use xlink:href="#path39_fill" transform="translate(-402.598 406.287)" fill="#E6E7E9"/>
</g>
<g id="Rectangle 6.13">
<use xlink:href="#path31_fill" transform="translate(-402.598 412.053)" fill="#E6E7E9"/>
</g>
<g id="Rectangle 6.14">
<use xlink:href="#path40_fill" transform="translate(-402.598 417.818)" fill="#E6E7E9"/>
</g>
<g id="Rectangle 6.15">
<use xlink:href="#path41_fill" transform="translate(-402.598 423.583)" fill="#E6E7E9"/>
</g>
<g id="Rectangle 6.16">
<use xlink:href="#path42_fill" transform="translate(-402.598 429.348)" fill="#E6E7E9"/>
</g>
</g>
</g>
</g>
<defs>
<path id="path0_fill" d="M 514.496 34.2196C 545.199 18.4045 583.286 35.7918 587.222 70.1035C 628.037 425.932 409.491 476.01 253 476.01C 132 476.01 9.54859e-13 461 1.89075e-26 302.5C -1.26812e-12 92 124.5 53.5 188 53.5C 345.112 53.5 336.992 125.653 514.496 34.2196Z"/>
<path id="path1_fill" d="M 0.00496273 0.0112981C 7.16603 23.5929 82.2561 29.4442 101.428 0.0114532C 102.015 -0.89056 96.5536 51.7849 96.0677 52.6714C 82.4623 77.4943 16.3304 74.366 5.3647 53.7351C 3.66842 50.5437 -0.156599 -0.520728 0.00496273 0.0112981Z"/>
<path id="path2_fill" d="M 0.00418046 0.00963137C 6.03646 20.1123 69.2903 25.1005 85.4398 0.00976355C 85.9347 -0.759182 81.3341 44.1454 80.9248 44.9011C 69.4639 66.0621 13.7563 63.3953 4.51907 45.8079C 3.09018 43.0873 -0.131914 -0.443908 0.00418046 0.00963137Z"/>
<path id="path3_fill" d="M 0.00544197 0.396142C 6.63129 25.9265 75.1554 31.8774 92.8941 0.0123255C 93.4377 -0.964232 88.7658 56.4482 88.3163 57.408C 75.7276 84.2823 14.5384 80.8955 4.3923 58.5596C 2.8228 55.1045 -0.144045 -0.179851 0.00544197 0.396142Z"/>
<path id="path4_fill" d="M 107 41.4389C 107 64.325 83.0472 82.8779 53.5 82.8779C 23.9528 82.8779 0 64.325 0 41.4389C 0 18.5528 23.9528 0 53.5 0C 83.0472 0 107 18.5528 107 41.4389Z"/>
<path id="path5_fill" d="M 106.637 37.0577C 106.637 57.5241 82.7657 74.1154 53.3186 74.1154C 23.8716 74.1154 0 57.5241 0 37.0577C 0 16.5913 23.8716 0 53.3186 0C 82.7657 0 106.637 16.5913 106.637 37.0577Z"/>
<path id="path6_fill" d="M 93.7079 32.7968C 93.7079 50.91 72.7307 65.5936 46.854 65.5936C 20.9772 65.5936 0 50.91 0 32.7968C 0 14.6836 20.9772 0 46.854 0C 72.7307 0 93.7079 14.6836 93.7079 32.7968Z"/>
<path id="path7_fill" d="M 89.5058 26.2375C 89.5058 40.728 69.4692 52.4749 44.7529 52.4749C 20.0366 52.4749 0 40.728 0 26.2375C 0 11.7469 20.0366 0 44.7529 0C 69.4692 0 89.5058 11.7469 89.5058 26.2375Z"/>
<path id="path8_fill" d="M 74.3781 23.0636C 74.3781 35.8012 57.728 46.1271 37.189 46.1271C 16.6501 46.1271 0 35.8012 0 23.0636C 0 10.3259 16.6501 0 37.189 0C 57.728 0 74.3781 10.3259 74.3781 23.0636Z"/>
<path id="path9_fill" d="M 74.3781 20.7361C 74.3781 32.1883 57.728 41.4721 37.189 41.4721C 16.6501 41.4721 0 32.1883 0 20.7361C 0 9.28385 16.6501 0 37.189 0C 57.728 0 74.3781 9.28385 74.3781 20.7361Z"/>
<path id="path10_fill" d="M 0.00872427 0.00432115C 2.67925 8.4511 10.4992 12.8656 10.8807 13.0576C 11.094 13.1649 13.7371 68.0714 13.551 67.9581C 6.303 63.543 4.96793 59.1276 4.39543 58.1674C 2.45321 54.9098 -0.17063 -0.562971 0.00872427 0.00432115Z"/>
<path id="path11_fill" d="M 0 2.75942C 0 1.23544 1.23544 0 2.75942 0L 14.9309 0C 16.4549 0 17.6903 1.23544 17.6903 2.75942C 17.6903 4.28341 16.4549 5.51885 14.9309 5.51885L 2.75943 5.51885C 1.23544 5.51885 0 4.28341 0 2.75942Z"/>
<path id="path12_fill" d="M 0 6C 0 2.68629 2.68629 0 6 0L 249 0C 252.314 0 255 2.68629 255 6L 255 141.012C 255 144.326 252.314 147.012 249 147.012L 6 147.012C 2.68629 147.012 0 144.326 0 141.012L 0 6Z"/>
<path id="path13_fill" d="M 0 6C 0 2.68629 2.68629 0 6 0L 249 0C 252.314 0 255 2.68629 255 6L 255 147C 255 150.314 252.314 153 249 153L 6 153C 2.68629 153 0 150.314 0 147L 0 6Z"/>
<path id="path14_fill" d="M 0 0L 76.6393 0L 76.6393 151.336L 0 151.336L 0 0Z"/>
<path id="path15_fill" d="M 0 25.5831L 16.7213 0L 16.7213 151.336L 0 170.434L 0 25.5831Z"/>
<path id="path16_fill" d="M 0 151.336L 18.8115 170.073C 18.8115 170.073 18.8115 73.7221 18.8115 17.2952C 18.8115 -7.55991e-05 0 3.22298e-15 0 3.22298e-15L 0 151.336Z"/>
<path id="path17_fill" d="M 0 151.336L 18.8115 170.073C 18.8115 170.073 18.8115 73.7221 18.8115 17.2952C 18.8115 -7.55991e-05 0 3.22298e-15 0 3.22298e-15L 0 151.336Z"/>
<path id="path18_fill" d="M 16.7213 0L 93.2244 0C 103.755 0 112.354 8.4156 112.582 18.9434L 0 18.7369L 16.7213 0Z"/>
<path id="path19_fill" d="M 0 0L 76.6393 0L 78.041 152.5L 0 151.336L 0 0Z"/>
<path id="path20_fill" d="M 0 25.5831L 16.7213 0L 16.7213 151.336L 0 170.434L 0 25.5831Z"/>
<path id="path21_fill" d="M 93.3607 151.336L 112.172 170.073C 112.172 170.073 114.229 75.4835 112.172 19.0968C 111.475 -9.34679e-05 93.3607 9.44988e-07 93.3607 9.44988e-07L 93.3607 151.336Z"/>
<path id="path22_fill" d="M 17 0L 93.7479 1.07488C 104.097 1.21981 112.41 9.65028 112.41 20L 0 20L 17 0Z"/>
<path id="path23_fill" d="M 0.237701 25.5831L 16.959 0L 17 151L 0 171L 0.237701 25.5831Z"/>
<path id="path24_fill" d="M 0 4.00346C 0 1.79241 1.79241 0 4.00346 0L 43.4241 0C 45.6351 0 47.4275 1.79241 47.4275 4.00346C 47.4275 6.21451 45.6351 8.00692 43.4241 8.00692L 4.00347 8.00692C 1.79242 8.00692 0 6.21451 0 4.00346Z"/>
<path id="path25_fill" d="M 0 2.16195C 0 0.967937 0.967936 0 2.16195 0L 55.6659 0C 56.8599 0 57.8279 0.967937 57.8279 2.16195C 57.8279 3.35596 56.8599 4.32389 55.6659 4.32389L 2.16195 4.32389C 0.967936 4.32389 0 3.35596 0 2.16195Z"/>
<path id="path26_fill" d="M 0 2.16195C 0 0.967937 0.967936 0 2.16195 0L 34.0676 0C 35.2616 0 36.2295 0.967937 36.2295 2.16195C 36.2295 3.35596 35.2616 4.32389 34.0676 4.32389L 2.16195 4.32389C 0.967935 4.32389 0 3.35596 0 2.16195Z"/>
<path id="path27_fill" d="M 0 1.4413C 0 0.645291 0.645291 0 1.4413 0L 56.2166 0C 57.0126 0 57.6579 0.645291 57.6579 1.4413C 57.6579 2.2373 57.0126 2.8826 56.2166 2.8826L 1.4413 2.8826C 0.645292 2.8826 0 2.2373 0 1.4413Z"/>
<path id="path28_fill" d="M 0 1.4413C 0 0.645291 0.645291 0 1.4413 0L 57.695 0C 58.4911 0 59.1363 0.645291 59.1363 1.4413C 59.1363 2.2373 58.4911 2.8826 57.695 2.8826L 1.4413 2.8826C 0.645291 2.8826 0 2.2373 0 1.4413Z"/>
<path id="path29_fill" d="M 0 1.4413C 0 0.645291 0.645291 0 1.4413 0L 48.8246 0C 49.6206 0 50.2659 0.645291 50.2659 1.4413C 50.2659 2.2373 49.6206 2.8826 48.8246 2.8826L 1.4413 2.8826C 0.645294 2.8826 0 2.2373 0 1.4413Z"/>
<path id="path30_fill" d="M 0 1.4413C 0 0.645291 0.645291 0 1.4413 0L 59.1735 0C 59.9695 0 60.6148 0.645291 60.6148 1.4413C 60.6148 2.2373 59.9695 2.8826 59.1735 2.8826L 1.4413 2.8826C 0.645292 2.8826 0 2.2373 0 1.4413Z"/>
<path id="path31_fill" d="M 0 1.4413C 0 0.645291 0.645291 0 1.4413 0L 51.8324 0C 52.6284 0 53.2737 0.645291 53.2737 1.4413C 53.2737 2.2373 52.6284 2.8826 51.8324 2.8826L 1.4413 2.8826C 0.645292 2.8826 0 2.2373 0 1.4413Z"/>
<path id="path32_fill" d="M 0 1.4413C 0 0.645291 0.645291 0 1.4413 0L 45.239 0C 46.035 0 46.6803 0.645291 46.6803 1.4413C 46.6803 2.2373 46.035 2.8826 45.239 2.8826L 1.4413 2.8826C 0.645294 2.8826 0 2.2373 0 1.4413Z"/>
<path id="path33_fill" d="M 0 1.4413C 0 0.645291 0.645291 0 1.4413 0L 43.2666 0C 44.0626 0 44.7079 0.645291 44.7079 1.4413C 44.7079 2.2373 44.0626 2.8826 43.2666 2.8826L 1.4413 2.8826C 0.645293 2.8826 0 2.2373 0 1.4413Z"/>
<path id="path34_fill" d="M 0 1.4413C 0 0.645291 0.645291 0 1.4413 0L 45.239 0C 46.035 0 46.6803 0.645291 46.6803 1.4413C 46.6803 2.2373 46.035 2.8826 45.239 2.8826L 1.4413 2.8826C 0.645294 2.8826 0 2.2373 0 1.4413Z"/>
<path id="path35_fill" d="M 0 1.4413C 0 0.645291 0.645291 0 1.4413 0L 57.5421 0C 58.3381 0 58.9834 0.645291 58.9834 1.4413C 58.9834 2.2373 58.3381 2.8826 57.5421 2.8826L 1.4413 2.8826C 0.645294 2.8826 0 2.2373 0 1.4413Z"/>
<path id="path36_fill" d="M 0 1.4413C 0 0.645291 0.645291 0 1.4413 0L 59.0545 0C 59.8505 0 60.4958 0.645291 60.4958 1.4413C 60.4958 2.2373 59.8505 2.8826 59.0545 2.8826L 1.4413 2.8826C 0.64529 2.8826 0 2.2373 0 1.4413Z"/>
<path id="path37_fill" d="M 0 1.4413C 0 0.645291 0.645291 0 1.4413 0L 43.1489 0C 43.9449 0 44.5902 0.645291 44.5902 1.4413C 44.5902 2.2373 43.9449 2.8826 43.1489 2.8826L 1.4413 2.8826C 0.645292 2.8826 0 2.2373 0 1.4413Z"/>
<path id="path38_fill" d="M 0 1.4413C 0 0.645291 0.645291 0 1.4413 0L 49.9801 0C 50.7761 0 51.4214 0.645291 51.4214 1.4413C 51.4214 2.2373 50.7761 2.8826 49.9801 2.8826L 1.4413 2.8826C 0.645295 2.8826 0 2.2373 0 1.4413Z"/>
<path id="path39_fill" d="M 0 1.4413C 0 0.645291 0.645291 0 1.4413 0L 60.5669 0C 61.3629 0 62.0082 0.645291 62.0082 1.4413C 62.0082 2.2373 61.3629 2.8826 60.5669 2.8826L 1.4413 2.8826C 0.645294 2.8826 0 2.2373 0 1.4413Z"/>
<path id="path40_fill" d="M 0 1.4413C 0 0.645291 0.645291 0 1.4413 0L 67.3302 0C 68.1262 0 68.7715 0.645291 68.7715 1.4413C 68.7715 2.2373 68.1262 2.8826 67.3302 2.8826L 1.4413 2.8826C 0.645294 2.8826 0 2.2373 0 1.4413Z"/>
<path id="path41_fill" d="M 0 1.4413C 0 0.645291 0.645291 0 1.4413 0L 64.4244 0C 65.2204 0 65.8657 0.645291 65.8657 1.4413C 65.8657 2.2373 65.2204 2.8826 64.4244 2.8826L 1.4413 2.8826C 0.645293 2.8826 0 2.2373 0 1.4413Z"/>
<path id="path42_fill" d="M 0 1.4413C 0 0.645291 0.645291 0 1.4413 0L 67.3302 0C 68.1262 0 68.7715 0.645291 68.7715 1.4413C 68.7715 2.2373 68.1262 2.8826 67.3302 2.8826L 1.4413 2.8826C 0.645294 2.8826 0 2.2373 0 1.4413Z"/>
</defs>
</svg>
