<svg width="108" height="20" viewBox="0 0 108 20" version="1.1" xmlns="http://www.w3.org/2000/svg" xmlns:xlink="http://www.w3.org/1999/xlink">
<title>Groupwork</title>
<desc>Created using Figma</desc>
<g id="Canvas" transform="translate(747 15)">
<g id="Groupwork">
<use xlink:href="#path0_fill" transform="translate(-747 -17)" fill="#2F80ED"/>
</g>
</g>
<defs>
<path id="path0_fill" d="M 11.12 15.6C 10.04 16.6 8.79333 17.1 7.38 17.1C 6.44667 17.1 5.56667 16.9267 4.74 16.58C 3.91333 16.22 3.18667 15.72 2.56 15.08C 1.94667 14.44 1.46 13.6733 1.1 12.78C 0.74 11.8733 0.56 10.88 0.56 9.8C 0.56 8.82667 0.74 7.90667 1.1 7.04C 1.46 6.17333 1.95333 5.42 2.58 4.78C 3.22 4.14 3.97333 3.63333 4.84 3.26C 5.70667 2.88667 6.64 2.7 7.64 2.7C 8.96 2.7 10.1133 2.98 11.1 3.54C 12.0867 4.08667 12.8267 4.84 13.32 5.8L 10.88 7.64C 10.56 7 10.0933 6.50667 9.48 6.16C 8.88 5.8 8.22667 5.62 7.52 5.62C 6.97333 5.62 6.47333 5.73333 6.02 5.96C 5.58 6.17333 5.2 6.48 4.88 6.88C 4.56 7.26667 4.31333 7.72 4.14 8.24C 3.96667 8.76 3.88 9.32 3.88 9.92C 3.88 10.5333 3.97333 11.1 4.16 11.62C 4.34667 12.14 4.60667 12.5933 4.94 12.98C 5.27333 13.3533 5.66667 13.6467 6.12 13.86C 6.58667 14.0733 7.1 14.18 7.66 14.18C 8.94 14.18 10.0933 13.5867 11.12 12.4L 11.12 11.96L 8.36 11.96L 8.36 9.58L 13.84 9.58L 13.84 17L 11.12 17L 11.12 15.6ZM 22.4084 9.24C 21.6351 9.25333 20.9351 9.38 20.3084 9.62C 19.6818 9.86 19.2284 10.22 18.9484 10.7L 18.9484 17L 15.7484 17L 15.7484 6.5L 18.6884 6.5L 18.6884 8.62C 19.0484 7.91333 19.5084 7.36 20.0684 6.96C 20.6418 6.56 21.2484 6.35333 21.8884 6.34C 22.0351 6.34 22.1418 6.34 22.2084 6.34C 22.2751 6.34 22.3418 6.34667 22.4084 6.36L 22.4084 9.24ZM 28.2289 17.2C 27.3356 17.2 26.5356 17.0533 25.8289 16.76C 25.1356 16.4667 24.5489 16.0733 24.0689 15.58C 23.5889 15.0733 23.2222 14.4933 22.9689 13.84C 22.7289 13.1733 22.6089 12.48 22.6089 11.76C 22.6089 11.04 22.7289 10.3533 22.9689 9.7C 23.2222 9.03333 23.5889 8.45333 24.0689 7.96C 24.5489 7.45333 25.1356 7.05333 25.8289 6.76C 26.5356 6.45333 27.3356 6.3 28.2289 6.3C 29.1222 6.3 29.9156 6.45333 30.6089 6.76C 31.3022 7.05333 31.8889 7.45333 32.3689 7.96C 32.8489 8.45333 33.2156 9.03333 33.4689 9.7C 33.7222 10.3533 33.8489 11.04 33.8489 11.76C 33.8489 12.48 33.7222 13.1733 33.4689 13.84C 33.2289 14.4933 32.8689 15.0733 32.3889 15.58C 31.9089 16.0733 31.3156 16.4667 30.6089 16.76C 29.9156 17.0533 29.1222 17.2 28.2289 17.2ZM 25.8889 11.76C 25.8889 12.5867 26.1089 13.2533 26.5489 13.76C 26.9889 14.2533 27.5489 14.5 28.2289 14.5C 28.5622 14.5 28.8689 14.4333 29.1489 14.3C 29.4289 14.1667 29.6689 13.98 29.8689 13.74C 30.0822 13.5 30.2489 13.2133 30.3689 12.88C 30.4889 12.5333 30.5489 12.16 30.5489 11.76C 30.5489 10.9333 30.3289 10.2733 29.8889 9.78C 29.4489 9.27333 28.8956 9.02 28.2289 9.02C 27.8956 9.02 27.5822 9.08667 27.2889 9.22C 27.0089 9.35333 26.7622 9.54 26.5489 9.78C 26.3489 10.02 26.1889 10.3133 26.0689 10.66C 25.9489 10.9933 25.8889 11.36 25.8889 11.76ZM 38.6159 17.2C 37.5359 17.2 36.7159 16.8667 36.1559 16.2C 35.6093 15.52 35.3359 14.5267 35.3359 13.22L 35.3359 6.5L 38.5359 6.5L 38.5359 12.52C 38.5359 13.16 38.6626 13.6533 38.9159 14C 39.1693 14.3333 39.5293 14.5 39.9959 14.5C 40.4226 14.5 40.8359 14.3867 41.2359 14.16C 41.6359 13.9333 41.9893 13.54 42.2959 12.98L 42.2959 6.5L 45.4959 6.5L 45.4959 13.4C 45.4959 13.72 45.5426 13.9467 45.6359 14.08C 45.7426 14.2 45.9226 14.2733 46.1759 14.3L 46.1759 17C 45.8693 17.0667 45.6093 17.1067 45.3959 17.12C 45.1826 17.1467 44.9893 17.16 44.8159 17.16C 43.6693 17.16 43.0159 16.7133 42.8559 15.82L 42.7959 15.18C 42.3159 15.8733 41.7159 16.3867 40.9959 16.72C 40.2893 17.04 39.4959 17.2 38.6159 17.2ZM 54.615 17.2C 53.815 17.2 53.1217 17.0333 52.535 16.7C 51.9483 16.3667 51.495 15.9 51.175 15.3L 51.175 21.26L 47.975 21.26L 47.975 6.5L 50.755 6.5L 50.755 8.2C 51.1417 7.6 51.6217 7.13333 52.195 6.8C 52.7817 6.46667 53.475 6.3 54.275 6.3C 54.9817 6.3 55.6283 6.44 56.215 6.72C 56.815 7 57.3283 7.38667 57.755 7.88C 58.195 8.36 58.535 8.93333 58.775 9.6C 59.0283 10.2533 59.155 10.96 59.155 11.72C 59.155 12.5067 59.0417 13.2333 58.815 13.9C 58.5883 14.5667 58.275 15.1467 57.875 15.64C 57.475 16.12 56.995 16.5 56.435 16.78C 55.875 17.06 55.2683 17.2 54.615 17.2ZM 53.535 14.5C 53.8817 14.5 54.195 14.4267 54.475 14.28C 54.7683 14.12 55.0217 13.9133 55.235 13.66C 55.4483 13.4067 55.6083 13.1133 55.715 12.78C 55.835 12.4333 55.895 12.0733 55.895 11.7C 55.895 11.3133 55.8283 10.96 55.695 10.64C 55.575 10.3067 55.4017 10.02 55.175 9.78C 54.9617 9.54 54.695 9.35333 54.375 9.22C 54.0683 9.08667 53.735 9.02 53.375 9.02C 52.935 9.02 52.5083 9.15333 52.095 9.42C 51.695 9.67333 51.3883 10.02 51.175 10.46L 51.175 12.62C 51.3883 13.1533 51.7083 13.6 52.135 13.96C 52.575 14.32 53.0417 14.5 53.535 14.5ZM 73.3564 6.5L 76.3964 6.5L 72.0564 17L 69.4364 17L 67.8164 12.68L 66.1964 17L 63.5764 17L 59.2364 6.5L 62.2564 6.5L 65.1164 14.04L 66.0964 11.18L 64.2364 6.5L 66.7964 6.5L 67.8164 9.66L 68.8164 6.5L 71.3764 6.5L 69.5364 11.18L 70.5164 14.04L 73.3564 6.5ZM 82.0375 17.2C 81.1442 17.2 80.3442 17.0533 79.6375 16.76C 78.9442 16.4667 78.3575 16.0733 77.8775 15.58C 77.3975 15.0733 77.0308 14.4933 76.7775 13.84C 76.5375 13.1733 76.4175 12.48 76.4175 11.76C 76.4175 11.04 76.5375 10.3533 76.7775 9.7C 77.0308 9.03333 77.3975 8.45333 77.8775 7.96C 78.3575 7.45333 78.9442 7.05333 79.6375 6.76C 80.3442 6.45333 81.1442 6.3 82.0375 6.3C 82.9308 6.3 83.7242 6.45333 84.4175 6.76C 85.1108 7.05333 85.6975 7.45333 86.1775 7.96C 86.6575 8.45333 87.0242 9.03333 87.2775 9.7C 87.5308 10.3533 87.6575 11.04 87.6575 11.76C 87.6575 12.48 87.5308 13.1733 87.2775 13.84C 87.0375 14.4933 86.6775 15.0733 86.1975 15.58C 85.7175 16.0733 85.1242 16.4667 84.4175 16.76C 83.7242 17.0533 82.9308 17.2 82.0375 17.2ZM 79.6975 11.76C 79.6975 12.5867 79.9175 13.2533 80.3575 13.76C 80.7975 14.2533 81.3575 14.5 82.0375 14.5C 82.3708 14.5 82.6775 14.4333 82.9575 14.3C 83.2375 14.1667 83.4775 13.98 83.6775 13.74C 83.8908 13.5 84.0575 13.2133 84.1775 12.88C 84.2975 12.5333 84.3575 12.16 84.3575 11.76C 84.3575 10.9333 84.1375 10.2733 83.6975 9.78C 83.2575 9.27333 82.7042 9.02 82.0375 9.02C 81.7042 9.02 81.3908 9.08667 81.0975 9.22C 80.8175 9.35333 80.5708 9.54 80.3575 9.78C 80.1575 10.02 79.9975 10.3133 79.8775 10.66C 79.7575 10.9933 79.6975 11.36 79.6975 11.76ZM 95.9045 9.24C 95.1312 9.25333 94.4312 9.38 93.8045 9.62C 93.1779 9.86 92.7245 10.22 92.4445 10.7L 92.4445 17L 89.2445 17L 89.2445 6.5L 92.1845 6.5L 92.1845 8.62C 92.5445 7.91333 93.0045 7.36 93.5645 6.96C 94.1379 6.56 94.7445 6.35333 95.3845 6.34C 95.5312 6.34 95.6379 6.34 95.7045 6.34C 95.7712 6.34 95.8379 6.34667 95.9045 6.36L 95.9045 9.24ZM 104.312 17L 101.572 12.78L 100.452 13.94L 100.452 17L 97.2523 17L 97.2523 2.4L 100.452 2.4L 100.452 10.86L 103.992 6.5L 107.392 6.5L 103.612 11.02L 107.712 17L 104.312 17Z"/>
</defs>
</svg>
