<svg width="190" height="35" viewBox="0 0 190 35" version="1.1" xmlns="http://www.w3.org/2000/svg" xmlns:xlink="http://www.w3.org/1999/xlink">
<title>Groupwork</title>
<desc>Created using Figma</desc>
<g id="Canvas" transform="translate(1187 -88)">
<g id="Groupwork">
<use xlink:href="#path0_fill" transform="translate(-1188 81)" fill="#94DAD5"/>
</g>
</g>
<defs>
<path id="path0_fill" d="M 20.412 31.12C 18.372 33.16 15.996 34.18 13.284 34.18C 11.604 34.18 10.02 33.844 8.532 33.172C 7.068 32.5 5.784 31.576 4.68 30.4C 3.6 29.224 2.736 27.844 2.088 26.26C 1.464 24.652 1.152 22.924 1.152 21.076C 1.152 19.324 1.464 17.68 2.088 16.144C 2.736 14.584 3.612 13.228 4.716 12.076C 5.844 10.9 7.164 9.976 8.676 9.304C 10.188 8.608 11.832 8.26 13.608 8.26C 16.008 8.26 18.06 8.764 19.764 9.772C 21.492 10.78 22.788 12.136 23.652 13.84L 19.944 16.576C 19.296 15.304 18.384 14.332 17.208 13.66C 16.056 12.988 14.796 12.652 13.428 12.652C 12.348 12.652 11.352 12.88 10.44 13.336C 9.552 13.792 8.784 14.416 8.136 15.208C 7.512 16 7.02 16.912 6.66 17.944C 6.324 18.976 6.156 20.068 6.156 21.22C 6.156 22.42 6.348 23.548 6.732 24.604C 7.116 25.636 7.644 26.536 8.316 27.304C 8.988 28.072 9.78 28.684 10.692 29.14C 11.628 29.572 12.636 29.788 13.716 29.788C 16.188 29.788 18.42 28.624 20.412 26.296L 20.412 24.496L 15.264 24.496L 15.264 20.86L 24.516 20.86L 24.516 34L 20.412 34L 20.412 31.12ZM 39.5139 19.312C 38.0499 19.336 36.7419 19.624 35.5899 20.176C 34.4379 20.704 33.6099 21.508 33.1059 22.588L 33.1059 34L 28.2819 34L 28.2819 15.136L 32.7099 15.136L 32.7099 19.168C 33.0459 18.52 33.4419 17.944 33.8979 17.44C 34.3539 16.912 34.8459 16.456 35.3739 16.072C 35.9019 15.688 36.4299 15.4 36.9579 15.208C 37.5099 14.992 38.0379 14.884 38.5419 14.884C 38.8059 14.884 38.9979 14.884 39.1179 14.884C 39.2619 14.884 39.3939 14.896 39.5139 14.92L 39.5139 19.312ZM 49.9666 34.36C 48.4306 34.36 47.0506 34.096 45.8266 33.568C 44.6026 33.04 43.5586 32.332 42.6946 31.444C 41.8546 30.532 41.2066 29.488 40.7506 28.312C 40.2946 27.136 40.0666 25.9 40.0666 24.604C 40.0666 23.284 40.2946 22.036 40.7506 20.86C 41.2066 19.684 41.8546 18.652 42.6946 17.764C 43.5586 16.852 44.6026 16.132 45.8266 15.604C 47.0506 15.076 48.4306 14.812 49.9666 14.812C 51.5026 14.812 52.8706 15.076 54.0706 15.604C 55.2946 16.132 56.3266 16.852 57.1666 17.764C 58.0306 18.652 58.6906 19.684 59.1466 20.86C 59.6026 22.036 59.8306 23.284 59.8306 24.604C 59.8306 25.9 59.6026 27.136 59.1466 28.312C 58.6906 29.488 58.0426 30.532 57.2026 31.444C 56.3626 32.332 55.3306 33.04 54.1066 33.568C 52.8826 34.096 51.5026 34.36 49.9666 34.36ZM 45.0346 24.604C 45.0346 25.444 45.1546 26.212 45.3946 26.908C 45.6586 27.58 46.0066 28.168 46.4386 28.672C 46.8946 29.176 47.4226 29.572 48.0226 29.86C 48.6226 30.124 49.2706 30.256 49.9666 30.256C 50.6626 30.256 51.3106 30.124 51.9106 29.86C 52.5106 29.572 53.0266 29.176 53.4586 28.672C 53.9146 28.168 54.2626 27.568 54.5026 26.872C 54.7666 26.176 54.8986 25.408 54.8986 24.568C 54.8986 23.752 54.7666 22.996 54.5026 22.3C 54.2626 21.604 53.9146 21.004 53.4586 20.5C 53.0266 19.996 52.5106 19.612 51.9106 19.348C 51.3106 19.06 50.6626 18.916 49.9666 18.916C 49.2706 18.916 48.6226 19.06 48.0226 19.348C 47.4226 19.636 46.8946 20.032 46.4386 20.536C 46.0066 21.04 45.6586 21.64 45.3946 22.336C 45.1546 23.032 45.0346 23.788 45.0346 24.604ZM 68.8466 34.36C 66.9026 34.36 65.4266 33.736 64.4186 32.488C 63.4106 31.24 62.9066 29.392 62.9066 26.944L 62.9066 15.136L 67.7306 15.136L 67.7306 25.9C 67.7306 28.804 68.7746 30.256 70.8626 30.256C 71.7986 30.256 72.6986 29.98 73.5626 29.428C 74.4506 28.852 75.1706 27.988 75.7226 26.836L 75.7226 15.136L 80.5466 15.136L 80.5466 28.456C 80.5466 28.96 80.6306 29.32 80.7986 29.536C 80.9906 29.752 81.2906 29.872 81.6986 29.896L 81.6986 34C 81.2186 34.096 80.8106 34.156 80.4746 34.18C 80.1626 34.204 79.8746 34.216 79.6106 34.216C 78.7466 34.216 78.0386 34.024 77.4866 33.64C 76.9586 33.232 76.6466 32.68 76.5506 31.984L 76.4426 30.472C 75.6026 31.768 74.5226 32.74 73.2026 33.388C 71.8826 34.036 70.4306 34.36 68.8466 34.36ZM 96.6445 34.36C 95.1565 34.36 93.8605 34.036 92.7565 33.388C 91.6525 32.716 90.7885 31.816 90.1645 30.688L 90.1645 41.668L 85.3405 41.668L 85.3405 15.136L 89.5525 15.136L 89.5525 18.376C 90.2485 17.272 91.1485 16.408 92.2525 15.784C 93.3565 15.136 94.6285 14.812 96.0685 14.812C 97.3405 14.812 98.5165 15.076 99.5965 15.604C 100.677 16.108 101.601 16.804 102.369 17.692C 103.161 18.556 103.773 19.588 104.205 20.788C 104.661 21.964 104.889 23.212 104.889 24.532C 104.889 25.9 104.685 27.184 104.277 28.384C 103.869 29.584 103.293 30.628 102.549 31.516C 101.829 32.404 100.965 33.1 99.9565 33.604C 98.9485 34.108 97.8445 34.36 96.6445 34.36ZM 95.0245 30.256C 95.7445 30.256 96.4045 30.1 97.0045 29.788C 97.6285 29.476 98.1565 29.056 98.5885 28.528C 99.0205 28 99.3565 27.388 99.5965 26.692C 99.8365 25.996 99.9565 25.276 99.9565 24.532C 99.9565 23.74 99.8245 23.008 99.5605 22.336C 99.2965 21.64 98.9245 21.04 98.4445 20.536C 97.9885 20.032 97.4365 19.636 96.7885 19.348C 96.1645 19.06 95.4805 18.916 94.7365 18.916C 94.2805 18.916 93.8125 19 93.3325 19.168C 92.8525 19.312 92.4085 19.528 92.0005 19.816C 91.5925 20.104 91.2205 20.44 90.8845 20.824C 90.5725 21.208 90.3325 21.628 90.1645 22.084L 90.1645 26.512C 90.5965 27.592 91.2565 28.492 92.1445 29.212C 93.0325 29.908 93.9925 30.256 95.0245 30.256ZM 130.924 15.136L 135.496 15.136L 127.612 34L 123.652 34L 120.412 25.72L 117.208 34L 113.248 34L 105.4 15.136L 109.936 15.136L 115.552 29.464L 117.856 23.344L 114.544 15.172L 118.432 15.172L 120.412 20.968L 122.428 15.172L 126.316 15.172L 123.04 23.344L 125.308 29.464L 130.924 15.136ZM 145.767 34.36C 144.231 34.36 142.851 34.096 141.627 33.568C 140.403 33.04 139.359 32.332 138.495 31.444C 137.655 30.532 137.007 29.488 136.551 28.312C 136.095 27.136 135.867 25.9 135.867 24.604C 135.867 23.284 136.095 22.036 136.551 20.86C 137.007 19.684 137.655 18.652 138.495 17.764C 139.359 16.852 140.403 16.132 141.627 15.604C 142.851 15.076 144.231 14.812 145.767 14.812C 147.303 14.812 148.671 15.076 149.871 15.604C 151.095 16.132 152.127 16.852 152.967 17.764C 153.831 18.652 154.491 19.684 154.947 20.86C 155.403 22.036 155.631 23.284 155.631 24.604C 155.631 25.9 155.403 27.136 154.947 28.312C 154.491 29.488 153.843 30.532 153.003 31.444C 152.163 32.332 151.131 33.04 149.907 33.568C 148.683 34.096 147.303 34.36 145.767 34.36ZM 140.835 24.604C 140.835 25.444 140.955 26.212 141.195 26.908C 141.459 27.58 141.807 28.168 142.239 28.672C 142.695 29.176 143.223 29.572 143.823 29.86C 144.423 30.124 145.071 30.256 145.767 30.256C 146.463 30.256 147.111 30.124 147.711 29.86C 148.311 29.572 148.827 29.176 149.259 28.672C 149.715 28.168 150.063 27.568 150.303 26.872C 150.567 26.176 150.699 25.408 150.699 24.568C 150.699 23.752 150.567 22.996 150.303 22.3C 150.063 21.604 149.715 21.004 149.259 20.5C 148.827 19.996 148.311 19.612 147.711 19.348C 147.111 19.06 146.463 18.916 145.767 18.916C 145.071 18.916 144.423 19.06 143.823 19.348C 143.223 19.636 142.695 20.032 142.239 20.536C 141.807 21.04 141.459 21.64 141.195 22.336C 140.955 23.032 140.835 23.788 140.835 24.604ZM 170.119 19.312C 168.655 19.336 167.347 19.624 166.195 20.176C 165.043 20.704 164.215 21.508 163.711 22.588L 163.711 34L 158.887 34L 158.887 15.136L 163.315 15.136L 163.315 19.168C 163.651 18.52 164.047 17.944 164.503 17.44C 164.959 16.912 165.451 16.456 165.979 16.072C 166.507 15.688 167.035 15.4 167.563 15.208C 168.115 14.992 168.643 14.884 169.147 14.884C 169.411 14.884 169.603 14.884 169.723 14.884C 169.867 14.884 169.999 14.896 170.119 14.92L 170.119 19.312ZM 185.697 34L 180.225 25.828L 177.633 28.384L 177.633 34L 172.809 34L 172.809 7.72L 177.633 7.72L 177.633 23.668L 185.193 15.172L 190.341 15.172L 183.321 23.164L 190.845 34L 185.697 34Z"/>
</defs>
</svg>
