<svg width="1280" height="420" viewBox="0 0 1280 420" version="1.1" xmlns="http://www.w3.org/2000/svg" xmlns:xlink="http://www.w3.org/1999/xlink">
<title>Rectangle</title>
<desc>Created using Figma</desc>
<g id="Canvas" transform="translate(1372 -2365)">
<g id="Rectangle">
<use xlink:href="#path0_fill" transform="translate(-1372 2365)" fill="#3090EA"/>
<mask id="mask0_outline_ins">
<use xlink:href="#path0_fill" fill="white" transform="translate(-1372 2365)"/>
</mask>
<g mask="url(#mask0_outline_ins)">
<use xlink:href="#path1_stroke_2x" transform="translate(-1372 2365)" fill="#3090EA"/>
</g>
</g>
</g>
<defs>
<path id="path0_fill" d="M 0 67.3692C 476 -113.443 490 132.057 877 86.5573C 1171.97 51.8768 1280 183.057 1280 183.057L 1280 420L 0 420L 0 67.3692Z"/>
<path id="path1_stroke_2x" d="M 0 67.3692L -0.355101 66.4344L -1 66.6794L -1 67.3692L 0 67.3692ZM 877 86.5573L 877.117 87.5505L 877 86.5573ZM 1280 183.057L 1281 183.057L 1281 182.699L 1280.77 182.422L 1280 183.057ZM 0 420L -1 420L -1 421L 0 421L 0 420ZM 1280 420L 1280 421L 1281 421L 1281 420L 1280 420ZM 0.355101 68.3041C 119.285 23.1277 209.302 4.60125 283.464 1.48495C 357.614 -1.63086 415.967 10.6561 471.59 27.18C 582.875 60.2391 683.363 110.33 877.117 87.5505L 876.883 85.5642C 683.637 108.284 583.625 58.3757 472.16 25.2628C 416.408 8.70067 357.824 -3.64143 283.38 -0.513284C 208.948 2.61437 118.715 21.2048 -0.355101 66.4344L 0.355101 68.3041ZM 877.117 87.5505C 1024.44 70.2299 1125 94.3332 1188.71 122.716C 1220.56 136.908 1243.21 152.176 1257.89 163.884C 1265.23 169.738 1270.57 174.702 1274.08 178.197C 1275.83 179.944 1277.12 181.324 1277.97 182.264C 1278.4 182.734 1278.72 183.094 1278.92 183.336C 1279.03 183.456 1279.11 183.547 1279.16 183.607C 1279.18 183.637 1279.2 183.659 1279.21 183.674C 1279.22 183.681 1279.22 183.686 1279.22 183.689C 1279.23 183.691 1279.23 183.692 1279.23 183.693C 1279.23 183.693 1279.23 183.693 1280 183.057C 1280.77 182.422 1280.77 182.421 1280.77 182.419C 1280.77 182.418 1280.77 182.416 1280.77 182.413C 1280.76 182.409 1280.76 182.402 1280.75 182.393C 1280.73 182.376 1280.71 182.351 1280.69 182.318C 1280.63 182.252 1280.55 182.155 1280.44 182.029C 1280.22 181.775 1279.89 181.403 1279.46 180.921C 1278.58 179.957 1277.27 178.552 1275.49 176.78C 1271.93 173.236 1266.53 168.223 1259.14 162.321C 1244.34 150.515 1221.54 135.156 1189.52 120.889C 1125.47 92.3509 1024.54 68.2042 876.883 85.5642L 877.117 87.5505ZM 1 420L 1 67.3692L -1 67.3692L -1 420L 1 420ZM 1279 183.057L 1279 420L 1281 420L 1281 183.057L 1279 183.057ZM 1280 419L 0 419L 0 421L 1280 421L 1280 419Z"/>
</defs>
</svg>
