<svg width="1073" height="572" viewBox="0 0 1073 572" version="1.1" xmlns="http://www.w3.org/2000/svg" xmlns:xlink="http://www.w3.org/1999/xlink">
<title>Group 3</title>
<desc>Created using Figma</desc>
<g id="Canvas" transform="translate(1123 -147)">
<g id="Rectangle 5">
<use xlink:href="#path1_fill" transform="translate(-1122.5 147)" fill="#2F80ED"/>
</g>
<g id="Comp">
<g id="Rectangle">
<use xlink:href="#path2_fill" transform="translate(-495 205)" fill="#D5DBDF"/>
</g>
<g id="Rectangle">
<use xlink:href="#path3_fill" transform="translate(-491.372 207.27)" fill="#565A63"/>
</g>
<g id="Rectangle">
<use xlink:href="#path4_fill" transform="translate(-465.977 370.921)" fill="url(#paint4_linear)"/>
</g>
<g id="Rectangle">
<use xlink:href="#path5_fill" transform="translate(-465.977 368.921)" fill="#EDF0F5"/>
</g>
<g id="Rectangle" filter="url(#filter0_i)">
<use xlink:href="#path6_fill" transform="translate(-303.628 446.114)" fill="#DAE1EB"/>
</g>
<g id="Rectangle" filter="url(#filter1_i)">
<use xlink:href="#path7_fill" transform="translate(-446.477 379.819)" fill="#E0E9F2"/>
</g>
<g id="Rectangle" filter="url(#filter2_i)">
<use xlink:href="#path8_fill" transform="translate(-441.942 381.181)" fill="#2C303B"/>
</g>
<g id="Rectangle">
<use xlink:href="#path9_fill" transform="translate(-457.36 358.931)" fill="#565A63"/>
</g>
<g id="Rectangle">
<use xlink:href="#path10_fill" transform="translate(-482.756 221.801)" fill="#FEFEFC"/>
</g>
<g id="Rectangle">
<use xlink:href="#path11_fill" transform="translate(-453.75 266.241)" fill="#EDF0F5"/>
</g>
<g id="Rectangle">
<use xlink:href="#path12_fill" transform="translate(-446 345)" fill="#EDF0F5"/>
</g>
<g id="Rectangle">
<use xlink:href="#path12_fill" transform="translate(-442 367)" fill="#EDF0F5"/>
</g>
<g id="Rectangle">
<use xlink:href="#path12_fill" transform="translate(-444 356)" fill="#EDF0F5"/>
</g>
<g id="Rectangle">
<use xlink:href="#path13_fill" transform="translate(-378 317)" fill="#EDF0F5"/>
</g>
<g id="Rectangle">
<use xlink:href="#path14_fill" transform="translate(-383.442 411.15)" fill="#DFE8F1"/>
</g>
<g id="Rectangle">
<use xlink:href="#path14_fill" transform="translate(-395.233 404.793)" fill="#DFE8F1"/>
</g>
<g id="Rectangle">
<use xlink:href="#path15_fill" transform="matrix(6.11532e-17 -1 1 6.13116e-17 -368.023 502.873)" fill="#DFE8F1"/>
</g>
<g id="Rectangle">
<use xlink:href="#path15_fill" transform="matrix(6.11532e-17 -1 1 6.13116e-17 -353.512 495.608)" fill="#DFE8F1"/>
</g>
<g id="Rectangle">
<use xlink:href="#path15_fill" transform="matrix(6.11532e-17 -1 1 6.13116e-17 -339.907 488.343)" fill="#DFE8F1"/>
</g>
<g id="Rectangle">
<use xlink:href="#path16_fill" transform="matrix(6.11532e-17 -1 1 6.13116e-17 -321.767 480.169)" fill="#DFE8F1"/>
</g>
<g id="Rectangle">
<use xlink:href="#path15_fill" transform="matrix(6.11532e-17 -1 1 6.13116e-17 -359.86 486.527)" fill="#DFE8F1"/>
</g>
<g id="Rectangle">
<use xlink:href="#path15_fill" transform="matrix(6.11532e-17 -1 1 6.13116e-17 -345.349 479.261)" fill="#DFE8F1"/>
</g>
<g id="Rectangle">
<use xlink:href="#path15_fill" transform="matrix(6.11532e-17 -1 1 6.13116e-17 -331.744 472.904)" fill="#DFE8F1"/>
</g>
<g id="Rectangle">
<use xlink:href="#path15_fill" transform="matrix(6.11532e-17 -1 1 6.13116e-17 -319.047 466.547)" fill="#DFE8F1"/>
</g>
<g id="Rectangle">
<use xlink:href="#path15_fill" transform="matrix(6.11532e-17 -1 1 6.13116e-17 -306.349 460.19)" fill="#DFE8F1"/>
</g>
<g id="Rectangle">
<use xlink:href="#path15_fill" transform="matrix(6.11532e-17 -1 1 6.13116e-17 -293.651 453.833)" fill="#DFE8F1"/>
</g>
<g id="Rectangle">
<use xlink:href="#path15_fill" transform="matrix(6.11532e-17 -1 1 6.13116e-17 -280.953 447.476)" fill="#DFE8F1"/>
</g>
<g id="Rectangle">
<use xlink:href="#path17_fill" transform="matrix(6.11532e-17 -1 1 6.13116e-17 -268.256 441.573)" fill="#DFE8F1"/>
</g>
<g id="Rectangle">
<use xlink:href="#path17_fill" transform="matrix(6.11532e-17 -1 1 6.13116e-17 -255.558 435.216)" fill="#DFE8F1"/>
</g>
<g id="Rectangle">
<use xlink:href="#path17_fill" transform="matrix(6.11532e-17 -1 1 6.13116e-17 -242.86 428.859)" fill="#DFE8F1"/>
</g>
<g id="Rectangle">
<use xlink:href="#path18_fill" transform="matrix(5.9315e-17 -1 1 6.32117e-17 -366.209 476.991)" fill="#DFE8F1"/>
</g>
<g id="Rectangle">
<use xlink:href="#path18_fill" transform="matrix(5.9315e-17 -1 1 6.32117e-17 -380.721 484.256)" fill="#DFE8F1"/>
</g>
<g id="Rectangle">
<use xlink:href="#path19_fill" transform="matrix(6.09401e-17 -1 1 6.1526e-17 -351.244 469.573)" fill="#DFE8F1"/>
</g>
<g id="Rectangle">
<use xlink:href="#path20_fill" transform="matrix(6.09401e-17 -1 1 6.1526e-17 -338.093 463.083)" fill="#DFE8F1"/>
</g>
<g id="Rectangle">
<use xlink:href="#path21_fill" transform="matrix(6.09401e-17 -1 1 6.1526e-17 -324.942 456.592)" fill="#DFE8F1"/>
</g>
<g id="Rectangle">
<use xlink:href="#path22_fill" transform="matrix(6.09401e-17 -1 1 6.1526e-17 -311.791 450.102)" fill="#DFE8F1"/>
</g>
<g id="Rectangle">
<use xlink:href="#path23_fill" transform="matrix(6.09401e-17 -1 1 6.1526e-17 -298.639 443.612)" fill="#DFE8F1"/>
</g>
<g id="Rectangle">
<use xlink:href="#path24_fill" transform="matrix(6.09401e-17 -1 1 6.1526e-17 -285.942 437.486)" fill="#DFE8F1"/>
</g>
<g id="Rectangle">
<use xlink:href="#path25_fill" transform="matrix(6.09401e-17 -1 1 6.1526e-17 -273.244 431.094)" fill="#DFE8F1"/>
</g>
<g id="Rectangle">
<use xlink:href="#path26_fill" transform="matrix(6.09401e-17 -1 1 6.1526e-17 -259.639 424.604)" fill="#DFE8F1"/>
</g>
<g id="Rectangle">
<use xlink:href="#path27_fill" transform="matrix(6.09401e-17 -1 1 6.1526e-17 -246.942 418.114)" fill="#DFE8F1"/>
</g>
<g id="Rectangle">
<use xlink:href="#path18_fill" transform="matrix(5.9315e-17 -1 1 6.32117e-17 -369.837 466.093)" fill="#DFE8F1"/>
</g>
<g id="Rectangle">
<use xlink:href="#path18_fill" transform="matrix(5.9315e-17 -1 1 6.32117e-17 -384.349 473.358)" fill="#DFE8F1"/>
</g>
<g id="Rectangle">
<use xlink:href="#path18_fill" transform="matrix(5.9315e-17 -1 1 6.32117e-17 -398.86 480.624)" fill="#DFE8F1"/>
</g>
<g id="Rectangle">
<use xlink:href="#path19_fill" transform="matrix(6.09401e-17 -1 1 6.1526e-17 -354.872 458.676)" fill="#DFE8F1"/>
</g>
<g id="Rectangle">
<use xlink:href="#path20_fill" transform="matrix(6.09401e-17 -1 1 6.1526e-17 -341.721 452.185)" fill="#DFE8F1"/>
</g>
<g id="Rectangle">
<use xlink:href="#path21_fill" transform="matrix(6.09401e-17 -1 1 6.1526e-17 -328.57 445.695)" fill="#DFE8F1"/>
</g>
<g id="Rectangle">
<use xlink:href="#path22_fill" transform="matrix(6.09401e-17 -1 1 6.1526e-17 -315.419 439.204)" fill="#DFE8F1"/>
</g>
<g id="Rectangle">
<use xlink:href="#path23_fill" transform="matrix(6.09401e-17 -1 1 6.1526e-17 -302.267 432.714)" fill="#DFE8F1"/>
</g>
<g id="Rectangle">
<use xlink:href="#path24_fill" transform="matrix(6.09401e-17 -1 1 6.1526e-17 -289.57 426.589)" fill="#DFE8F1"/>
</g>
<g id="Rectangle">
<use xlink:href="#path28_fill" transform="matrix(6.09401e-17 -1 1 6.1526e-17 -275.965 420.197)" fill="#DFE8F1"/>
</g>
<g id="Rectangle">
<use xlink:href="#path26_fill" transform="matrix(6.09401e-17 -1 1 6.1526e-17 -263.267 413.706)" fill="#DFE8F1"/>
</g>
<g id="Rectangle">
<use xlink:href="#path29_fill" transform="matrix(6.09401e-17 -1 1 6.1526e-17 -250.116 407.216)" fill="#DFE8F1"/>
</g>
<g id="Rectangle">
<use xlink:href="#path18_fill" transform="matrix(5.9315e-17 -1 1 6.32117e-17 -388.884 463.369)" fill="#DFE8F1"/>
</g>
<g id="Rectangle">
<use xlink:href="#path18_fill" transform="matrix(5.9315e-17 -1 1 6.32117e-17 -403.395 470.634)" fill="#DFE8F1"/>
</g>
<g id="Rectangle">
<use xlink:href="#path30_fill" transform="matrix(5.9315e-17 -1 1 6.32117e-17 -417.453 477.899)" fill="#DFE8F1"/>
</g>
<g id="Rectangle">
<use xlink:href="#path19_fill" transform="matrix(6.09401e-17 -1 1 6.1526e-17 -373.919 455.951)" fill="#DFE8F1"/>
</g>
<g id="Rectangle">
<use xlink:href="#path20_fill" transform="matrix(6.09401e-17 -1 1 6.1526e-17 -360.767 449.461)" fill="#DFE8F1"/>
</g>
<g id="Rectangle">
<use xlink:href="#path21_fill" transform="matrix(6.09401e-17 -1 1 6.1526e-17 -347.616 442.97)" fill="#DFE8F1"/>
</g>
<g id="Rectangle">
<use xlink:href="#path22_fill" transform="matrix(6.09401e-17 -1 1 6.1526e-17 -334.465 436.48)" fill="#DFE8F1"/>
</g>
<g id="Rectangle">
<use xlink:href="#path23_fill" transform="matrix(6.09401e-17 -1 1 6.1526e-17 -321.314 429.989)" fill="#DFE8F1"/>
</g>
<g id="Rectangle">
<use xlink:href="#path24_fill" transform="matrix(6.09401e-17 -1 1 6.1526e-17 -308.616 423.864)" fill="#DFE8F1"/>
</g>
<g id="Rectangle">
<use xlink:href="#path28_fill" transform="matrix(6.09401e-17 -1 1 6.1526e-17 -295.919 417.472)" fill="#DFE8F1"/>
</g>
<g id="Rectangle">
<use xlink:href="#path26_fill" transform="matrix(6.09401e-17 -1 1 6.1526e-17 -283.221 410.982)" fill="#DFE8F1"/>
</g>
<g id="Rectangle">
<use xlink:href="#path29_fill" transform="matrix(6.09401e-17 -1 1 6.1526e-17 -270.07 404.491)" fill="#DFE8F1"/>
</g>
<g id="Rectangle">
<use xlink:href="#path16_fill" transform="matrix(6.11532e-17 -1 1 6.13116e-17 -251.93 444.752)" fill="#DFE8F1"/>
</g>
<g id="Rectangle">
<use xlink:href="#path31_fill" transform="matrix(6.11532e-17 -1 1 6.13116e-17 -238.326 437.803)" fill="#DFE8F1"/>
</g>
<g id="Rectangle">
<use xlink:href="#path32_fill" transform="matrix(6.11532e-17 -1 1 6.13116e-17 -224.721 431.129)" fill="#DFE8F1"/>
</g>
<g id="Rectangle">
<use xlink:href="#path32_fill" transform="matrix(6.11532e-17 -1 1 6.13116e-17 -211.116 424.772)" fill="#DFE8F1"/>
</g>
<g id="Rectangle">
<use xlink:href="#path14_fill" transform="translate(-408.837 398.436)" fill="#DFE8F1"/>
</g>
<g id="Rectangle">
<use xlink:href="#path14_fill" transform="translate(-422.442 392.987)" fill="#DFE8F1"/>
</g>
<g id="Rectangle">
<use xlink:href="#path33_fill" transform="translate(-432.419 386.176)" fill="#DFE8F1"/>
</g>
</g>
<g id="Paper">
<g id="Rectangle" filter="url(#filter3_d)">
<use xlink:href="#path34_fill" transform="translate(-787 393)" fill="#FAFAFA"/>
</g>
<g id="Rectangle 2.6">
<use xlink:href="#path35_fill" transform="matrix(-0.530624 -0.847607 -0.848488 0.529215 -604.021 441.669)" fill="#BDBDBD"/>
</g>
<g id="Rectangle 2.12">
<use xlink:href="#path36_fill" transform="matrix(-0.530624 -0.847607 -0.848488 0.529215 -672.977 449.795)" fill="#BDBDBD"/>
</g>
<g id="Rectangle 2.7">
<use xlink:href="#path35_fill" transform="matrix(-0.530624 -0.847607 -0.848488 0.529215 -590.079 450.019)" fill="#BDBDBD"/>
</g>
<g id="Rectangle 2.8">
<use xlink:href="#path35_fill" transform="matrix(-0.530624 -0.847607 -0.848488 0.529215 -574.743 458.369)" fill="#BDBDBD"/>
</g>
<g id="Rectangle 2.9">
<use xlink:href="#path35_fill" transform="matrix(-0.530624 -0.847607 -0.848488 0.529215 -560.801 466.718)" fill="#BDBDBD"/>
</g>
<g id="Rectangle 2.10">
<use xlink:href="#path35_fill" transform="matrix(-0.530624 -0.847607 -0.848488 0.529215 -532.917 483.418)" fill="#BDBDBD"/>
</g>
<g id="Rectangle 2.11">
<use xlink:href="#path35_fill" transform="matrix(-0.530624 -0.847607 -0.848488 0.529215 -518.974 491.768)" fill="#BDBDBD"/>
</g>
</g>
<g id="Paper">
<g id="Rectangle" filter="url(#filter4_d)">
<use xlink:href="#path34_fill" transform="translate(-761 484)" fill="#FAFAFA"/>
</g>
<g id="Rectangle 2.6">
<use xlink:href="#path35_fill" transform="matrix(-0.530624 -0.847607 -0.848488 0.529215 -578.021 532.669)" fill="#BDBDBD"/>
</g>
<g id="Rectangle 2.12">
<use xlink:href="#path36_fill" transform="matrix(-0.530624 -0.847607 -0.848488 0.529215 -646.977 540.795)" fill="#BDBDBD"/>
</g>
<g id="Rectangle 2.7">
<use xlink:href="#path35_fill" transform="matrix(-0.530624 -0.847607 -0.848488 0.529215 -564.079 541.019)" fill="#BDBDBD"/>
</g>
<g id="Rectangle 2.8">
<use xlink:href="#path35_fill" transform="matrix(-0.530624 -0.847607 -0.848488 0.529215 -548.743 549.369)" fill="#BDBDBD"/>
</g>
<g id="Rectangle 2.9">
<use xlink:href="#path35_fill" transform="matrix(-0.530624 -0.847607 -0.848488 0.529215 -534.801 557.718)" fill="#BDBDBD"/>
</g>
<g id="Rectangle 2.10">
<use xlink:href="#path35_fill" transform="matrix(-0.530624 -0.847607 -0.848488 0.529215 -506.917 574.418)" fill="#BDBDBD"/>
</g>
<g id="Rectangle 2.11">
<use xlink:href="#path35_fill" transform="matrix(-0.530624 -0.847607 -0.848488 0.529215 -492.974 582.768)" fill="#BDBDBD"/>
</g>
<g id="Paper">
<g id="Rectangle" filter="url(#filter5_d)">
<use xlink:href="#path34_fill" transform="translate(-740 519)" fill="#FAFAFA"/>
</g>
<g id="Rectangle 2.6">
<use xlink:href="#path35_fill" transform="matrix(-0.530624 -0.847607 -0.848488 0.529215 -557.021 567.669)" fill="#BDBDBD"/>
</g>
<g id="Rectangle 2.12">
<use xlink:href="#path36_fill" transform="matrix(-0.530624 -0.847607 -0.848488 0.529215 -625.977 575.795)" fill="#BDBDBD"/>
</g>
<g id="Rectangle 2.7">
<use xlink:href="#path35_fill" transform="matrix(-0.530624 -0.847607 -0.848488 0.529215 -543.079 576.019)" fill="#BDBDBD"/>
</g>
<g id="Rectangle 2.8">
<use xlink:href="#path35_fill" transform="matrix(-0.530624 -0.847607 -0.848488 0.529215 -527.743 584.369)" fill="#BDBDBD"/>
</g>
<g id="Rectangle 2.9">
<use xlink:href="#path35_fill" transform="matrix(-0.530624 -0.847607 -0.848488 0.529215 -513.801 592.718)" fill="#BDBDBD"/>
</g>
<g id="Rectangle 2.10">
<use xlink:href="#path35_fill" transform="matrix(-0.530624 -0.847607 -0.848488 0.529215 -485.917 609.418)" fill="#BDBDBD"/>
</g>
<g id="Rectangle 2.11">
<use xlink:href="#path35_fill" transform="matrix(-0.530624 -0.847607 -0.848488 0.529215 -471.974 617.768)" fill="#BDBDBD"/>
</g>
</g>
</g>
<g id="Coffee">
<g id="Ellipse">
<use xlink:href="#path37_fill" transform="translate(-195 314)" fill="#2161B8"/>
</g>
<g id="Rectangle 4">
<use xlink:href="#path38_fill" transform="translate(-205.353 221.896)" fill="#FCC7A2"/>
</g>
<g id="Rectangle 4.3">
<use xlink:href="#path39_fill" transform="translate(-197.546 306.107)" fill="#FCC7A2"/>
</g>
<g id="Rectangle 4.1">
<use xlink:href="#path40_fill" transform="translate(-201.353 264.307)" fill="#FFFFFF"/>
</g>
<g id="Ellipse 2.5">
<use xlink:href="#path41_fill" transform="translate(-208 183.095)" fill="#E6E7E9"/>
</g>
<g id="Ellipse 2.4">
<use xlink:href="#path42_fill" transform="translate(-207.637 183.46)" fill="#FFFFFF"/>
</g>
<g id="Ellipse 2.3">
<use xlink:href="#path43_fill" transform="translate(-201.754 182.423)" fill="#E6E7E9"/>
</g>
<g id="Ellipse 2.2">
<use xlink:href="#path44_fill" transform="translate(-199.653 182)" fill="#FFFFFF"/>
</g>
<g id="Ellipse 2.1">
<use xlink:href="#path45_fill" transform="translate(-191.249 188.348)" fill="#E6E7E9"/>
</g>
<g id="Ellipse 2">
<use xlink:href="#path46_fill" transform="translate(-191.249 193.003)" fill="#FFFFFF"/>
</g>
<g id="Rectangle 4.2">
<use xlink:href="#path47_fill" transform="translate(-201.356 264.698)" fill="#E6E7E9"/>
</g>
<g id="Rectangle 5">
<use xlink:href="#path48_fill" transform="matrix(0.817424 -0.576037 0.571116 0.820869 -154.235 213.274)" fill="#E6E7E9"/>
</g>
</g>
<g id="Ellipse 2">
<use xlink:href="#path49_fill" transform="translate(-475 318)" fill="#EB5757"/>
</g>
<g id="Ellipse 2.1">
<use xlink:href="#path49_fill" transform="translate(-465 313)" fill="#F2994A"/>
</g>
<g id="Ellipse 2.2">
<use xlink:href="#path49_fill" transform="translate(-455 308)" fill="#27AE60"/>
</g>
</g>
</g>
<defs>
<filter id="filter0_i" filterUnits="userSpaceOnUse" x="-303" y="446" width="127" height="66" color-interpolation-filters="sRGB">
<feFlood flood-opacity="0" result="BackgroundImageFix"/>
<feBlend mode="normal" in="SourceGraphic" in2="BackgroundImageFix" result="shape"/>
<feColorMatrix in="SourceAlpha" type="matrix" values="0 0 0 0 0 0 0 0 0 0 0 0 0 0 0 0 0 0 255 0" result="hardAlpha"/>
<feOffset dx="0" dy="1"/>
<feGaussianBlur stdDeviation="2"/>
<feComposite in2="hardAlpha" operator="arithmetic" k2="-1" k3="1"/>
<feColorMatrix type="matrix" values="0 0 0 0 0 0 0 0 0 0 0 0 0 0 0 0 0 0 0.05 0"/>
<feBlend mode="normal" in2="shape" result="effect1_innerShadow"/>
</filter>
<filter id="filter1_i" filterUnits="userSpaceOnUse" x="-446" y="379" width="260" height="134" color-interpolation-filters="sRGB">
<feFlood flood-opacity="0" result="BackgroundImageFix"/>
<feBlend mode="normal" in="SourceGraphic" in2="BackgroundImageFix" result="shape"/>
<feColorMatrix in="SourceAlpha" type="matrix" values="0 0 0 0 0 0 0 0 0 0 0 0 0 0 0 0 0 0 255 0" result="hardAlpha"/>
<feOffset dx="0" dy="1"/>
<feGaussianBlur stdDeviation="2"/>
<feComposite in2="hardAlpha" operator="arithmetic" k2="-1" k3="1"/>
<feColorMatrix type="matrix" values="0 0 0 0 0 0 0 0 0 0 0 0 0 0 0 0 0 0 0.05 0"/>
<feBlend mode="normal" in2="shape" result="effect1_innerShadow"/>
</filter>
<filter id="filter2_i" filterUnits="userSpaceOnUse" x="-441" y="381" width="253" height="130" color-interpolation-filters="sRGB">
<feFlood flood-opacity="0" result="BackgroundImageFix"/>
<feBlend mode="normal" in="SourceGraphic" in2="BackgroundImageFix" result="shape"/>
<feColorMatrix in="SourceAlpha" type="matrix" values="0 0 0 0 0 0 0 0 0 0 0 0 0 0 0 0 0 0 255 0" result="hardAlpha"/>
<feOffset dx="0" dy="1"/>
<feGaussianBlur stdDeviation="2"/>
<feComposite in2="hardAlpha" operator="arithmetic" k2="-1" k3="1"/>
<feColorMatrix type="matrix" values="0 0 0 0 0 0 0 0 0 0 0 0 0 0 0 0 0 0 0.05 0"/>
<feBlend mode="normal" in2="shape" result="effect1_innerShadow"/>
</filter>
<filter id="filter3_d" filterUnits="userSpaceOnUse" x="-789" y="391" width="321" height="191" color-interpolation-filters="sRGB">
<feFlood flood-opacity="0" result="BackgroundImageFix"/>
<feColorMatrix in="SourceAlpha" type="matrix" values="0 0 0 0 0 0 0 0 0 0 0 0 0 0 0 0 0 0 255 0"/>
<feOffset dx="2" dy="2"/>
<feGaussianBlur stdDeviation="2"/>
<feColorMatrix type="matrix" values="0 0 0 0 0 0 0 0 0 0 0 0 0 0 0 0 0 0 0.1 0"/>
<feBlend mode="normal" in2="BackgroundImageFix" result="effect1_dropShadow"/>
<feBlend mode="normal" in="SourceGraphic" in2="effect1_dropShadow" result="shape"/>
</filter>
<filter id="filter4_d" filterUnits="userSpaceOnUse" x="-763" y="482" width="321" height="191" color-interpolation-filters="sRGB">
<feFlood flood-opacity="0" result="BackgroundImageFix"/>
<feColorMatrix in="SourceAlpha" type="matrix" values="0 0 0 0 0 0 0 0 0 0 0 0 0 0 0 0 0 0 255 0"/>
<feOffset dx="2" dy="2"/>
<feGaussianBlur stdDeviation="2"/>
<feColorMatrix type="matrix" values="0 0 0 0 0 0 0 0 0 0 0 0 0 0 0 0 0 0 0.1 0"/>
<feBlend mode="normal" in2="BackgroundImageFix" result="effect1_dropShadow"/>
<feBlend mode="normal" in="SourceGraphic" in2="effect1_dropShadow" result="shape"/>
</filter>
<filter id="filter5_d" filterUnits="userSpaceOnUse" x="-742" y="517" width="321" height="191" color-interpolation-filters="sRGB">
<feFlood flood-opacity="0" result="BackgroundImageFix"/>
<feColorMatrix in="SourceAlpha" type="matrix" values="0 0 0 0 0 0 0 0 0 0 0 0 0 0 0 0 0 0 255 0"/>
<feOffset dx="2" dy="2"/>
<feGaussianBlur stdDeviation="2"/>
<feColorMatrix type="matrix" values="0 0 0 0 0 0 0 0 0 0 0 0 0 0 0 0 0 0 0.1 0"/>
<feBlend mode="normal" in2="BackgroundImageFix" result="effect1_dropShadow"/>
<feBlend mode="normal" in="SourceGraphic" in2="effect1_dropShadow" result="shape"/>
</filter>
<linearGradient id="paint4_linear" x1="0" y1="0" x2="1" y2="0" gradientUnits="userSpaceOnUse" gradientTransform="matrix(307.012 33.2065 -63.9124 628.513 40.119 -196.397)">
<stop offset="0" stop-color="#D9DFE3"/>
<stop offset="1" stop-color="#C2C8CC"/>
</linearGradient>
<path id="path0_fill" d="M 1045 0L 1043.5 406.5L 762.217 558.5L 0 558.5L 1045 0Z"/>
<path id="path1_fill" d="M 1072.5 0L 1072.5 406L 763 572L 0 572L 1072.5 0Z"/>
<path id="path2_fill" d="M 1.20489 107.935C 0.490145 103.567 2.73183 99.2493 6.71546 97.3203L 197.859 4.7641C 202.73 2.40557 208.488 5.46276 209.263 10.8187L 231.779 166.426C 232.023 168.11 231.175 169.763 229.667 170.548L 33.4712 272.619C 31.0554 273.876 28.1173 272.404 27.6776 269.717L 1.20489 107.935Z"/>
<path id="path3_fill" d="M 1.14421 107.427C 0.464315 103.084 2.70028 98.8062 6.65428 96.8854L 196.346 4.73466C 201.189 2.38226 206.926 5.3879 207.748 10.7083L 231.742 165.912C 232.007 167.624 231.139 169.312 229.593 170.093L 31.8832 269.967C 29.4602 271.191 26.5477 269.697 26.1278 267.015L 1.14421 107.427Z"/>
<path id="path4_fill" d="M 6.80423 112.014C 3.93271 110.534 3.91067 106.436 6.7661 104.924L 200.322 2.46389C 203.236 0.921694 206.722 0.914292 209.642 2.4441L 343.758 72.712C 350.964 76.4875 350.887 86.8291 343.625 90.4962L 161.483 182.478C 155.76 185.368 148.999 185.339 143.301 182.401L 6.80423 112.014Z"/>
<path id="path5_fill" d="M 7.05097 108.875C 4.12262 107.409 4.10059 103.238 7.01327 101.741L 200.452 2.3255C 203.295 0.864284 206.665 0.850405 209.521 2.28816L 342.243 69.1238C 349.596 72.8267 349.575 83.3322 342.206 87.0051L 161.314 177.173C 155.684 179.979 149.063 179.973 143.438 177.157L 7.05097 108.875Z"/>
<path id="path6_fill" d="M 1.77873 38.2815C 1.04305 37.9159 1.03754 36.8684 1.76933 36.4951L 72.8668 0.229432C 73.1497 0.0851511 73.4843 0.0837812 73.7683 0.225739L 126.992 26.8268C 127.731 27.1961 127.729 28.2513 126.988 28.6176L 54.9452 64.2588C 54.6652 64.3973 54.3366 64.397 54.0568 64.258L 1.77873 38.2815Z"/>
<path id="path7_fill" d="M 1.75553 94.434C 1.02623 94.0624 1.02788 93.0198 1.75835 92.6505L 184.586 0.220925C 184.862 0.081546 185.187 0.077416 185.466 0.209731L 259.826 35.4556C 260.576 35.8111 260.592 36.8726 259.853 37.2499L 75.3118 131.45C 75.0265 131.596 74.6886 131.596 74.4032 131.45L 1.75553 94.434Z"/>
<path id="path8_fill" d="M 1.74359 92.6185C 1.01718 92.2455 1.01989 91.2062 1.74823 90.8369L 180.508 0.220079C 180.782 0.0811544 181.104 0.0759237 181.383 0.205903L 253.001 33.6416C 253.756 33.9942 253.774 35.0617 253.031 35.4392L 71.1995 127.818C 70.9135 127.963 70.5752 127.962 70.2898 127.816L 1.74359 92.6185Z"/>
<path id="path9_fill" d="M 1.48577 93.4561C 0.819157 93.0861 0.795308 92.136 1.44252 91.733L 148.218 0.327747C 148.54 0.126978 148.949 0.126163 149.272 0.325645L 180.339 19.5014C 181.002 19.9106 180.963 20.8872 180.27 21.2424L 21.5298 102.556C 20.3427 103.164 18.9307 103.141 17.7646 102.493L 1.48577 93.4561Z"/>
<path id="path10_fill" d="M 0.114731 95.1752C 0.0464995 94.7425 0.267814 94.3158 0.660801 94.1223L 190.599 0.603698C 191.206 0.304852 191.929 0.682387 192.03 1.35133L 213.485 143.229C 213.55 143.655 213.334 144.074 212.951 144.269L 24.3555 240.488C 23.7499 240.797 23.0191 240.424 22.9132 239.753L 0.114731 95.1752Z"/>
<path id="path11_fill" d="M 0.521236 74.8893C 0.211389 73.1614 1.06426 71.4335 2.62421 70.6285L 134.655 2.49995C 137.056 1.26102 139.969 2.70964 140.431 5.37178L 142.252 15.8821C 142.549 17.5959 141.704 19.3051 140.162 20.1104L 8.32782 88.978C 5.93437 90.2283 3.01521 88.7966 2.53857 86.1387L 0.521236 74.8893Z"/>
<path id="path12_fill" d="M 0.131802 28.264C 0.0535201 27.8306 0.267977 27.3971 0.659936 27.1963L 52.54 0.618723C 53.1397 0.311551 53.8653 0.673142 53.9811 1.33682L 54.874 6.4533C 54.949 6.88317 54.7366 7.31204 54.3493 7.51294L 2.55199 34.3759C 1.95427 34.6858 1.22722 34.3285 1.10753 33.6659L 0.131802 28.264Z"/>
<path id="path13_fill" d="M 0.115776 22.3451C 0.0469918 21.9107 0.270157 21.4823 0.6656 21.2897L 43.1555 0.595096C 43.7617 0.299835 44.4805 0.676945 44.582 1.34356L 48.8917 29.6405C 48.9564 30.0652 48.7426 30.4838 48.3605 30.6803L 6.19833 52.3678C 5.59274 52.6793 4.85971 52.3076 4.75321 51.635L 0.115776 22.3451Z"/>
<path id="path14_fill" d="M 0 92.1945L 187.291 0L 188.651 0.454075L 1.90557 93.0854L 0 92.1945Z"/>
<path id="path15_fill" d="M 0 10.8837L 5.57 0L 6.81113 1.36047L 0.454075 13.1512L 0 10.8837Z"/>
<path id="path16_fill" d="M 0 10.8837L 5.57 0L 6.81113 1.36047L 0.90815 12.6977L 0 10.8837Z"/>
<path id="path17_fill" d="M 0 11.7907L 6.02407 0L 7.2652 1.36047L 0.90815 13.1512L 0 11.7907Z"/>
<path id="path18_fill" d="M 0 11.9803L 6.35705 0L 6.95401 2.29114L 0.463601 14.2872L 0 11.9803Z"/>
<path id="path19_fill" d="M 0 11.7797L 6.20462 0L 6.95401 2.09053L 0.463601 14.0866L 0 11.7797Z"/>
<path id="path20_fill" d="M 0 12.4701L 6.52533 0L 6.97941 2.26744L 0.463601 14.777L 0 12.4701Z"/>
<path id="path21_fill" d="M 0 12.2376L 6.39197 0L 6.95401 2.54844L 0.463601 14.5445L 0 12.2376Z"/>
<path id="path22_fill" d="M 0 12.0055L 6.25861 0L 6.95401 2.31638L 0.463601 14.3125L 0 12.0055Z"/>
<path id="path23_fill" d="M 0 11.773L 6.12525 0L 6.95401 2.08388L 0.463601 14.08L 0 11.773Z"/>
<path id="path24_fill" d="M 0 12.6977L 6.81113 0L 7.31918 2.30531L 0.828768 14.3014L 0 12.6977Z"/>
<path id="path25_fill" d="M 0 13.1387L 6.77621 0L 7.41762 2.52674L 0.927202 14.5228L 0 13.1387Z"/>
<path id="path26_fill" d="M 0 12.4527L 6.64284 0L 7.41762 1.84075L 0.927202 13.8368L 0 12.4527Z"/>
<path id="path27_fill" d="M 0 12.6741L 6.96356 0L 7.41762 2.06218L 0.927202 14.0583L 0 12.6741Z"/>
<path id="path28_fill" d="M 0 12.2317L 6.32213 0L 7.41762 1.61977L 0.927202 13.6159L 0 12.2317Z"/>
<path id="path29_fill" d="M 0 12.2206L 6.50948 0L 7.41762 1.60869L 0.927202 13.6048L 0 12.2206Z"/>
<path id="path30_fill" d="M 0 12.4338L 6.35705 0L 7.2652 2.26744L 1.36223 13.6047L 0 12.4338Z"/>
<path id="path31_fill" d="M 0 10.4302L 5.348 0L 6.58913 1.36047L 1.22448 11.3372L 0 10.4302Z"/>
<path id="path32_fill" d="M 0 9.97674L 5.03167 0L 6.2728 1.36047L 0.90815 11.3372L 0 9.97674Z"/>
<path id="path33_fill" d="M 0 92.6486L 183.663 0L 185.023 0.454075L 1.90557 93.5395L 0 92.6486Z"/>
<path id="path34_fill" d="M 127.827 0L 313 107.044L 182.61 183L 0 77.5587L 127.827 0Z"/>
<path id="path35_fill" d="M 0.404495 3.47095C 0.41034 1.92984 2.08361 0.974117 3.414 1.75201L 4.4557 2.36111C 5.06638 2.71818 5.443 3.3713 5.44616 4.07871L 5.91859 109.969C 5.92538 111.49 4.2984 112.462 2.96223 111.734L 1.04814 110.692C 0.402485 110.34 0.0017381 109.663 0.0045263 108.928L 0.404495 3.47095Z"/>
<path id="path36_fill" d="M 0.707305 2.99861C 0.724625 1.57187 2.18754 0.621658 3.49808 1.18592L 11.0245 4.42648C 11.7564 4.74161 12.2314 5.46116 12.2335 6.25803L 12.3888 63.5949C 12.3927 65.0377 10.9141 66.0098 9.59101 65.4343L 1.21822 61.7923C 0.48008 61.4712 0.00636348 60.7389 0.0161345 59.934L 0.707305 2.99861Z"/>
<path id="path37_fill" d="M 97 25.5C 97 39.5833 75.2858 51 48.5 51C 21.7142 51 0 39.5833 0 25.5C 0 11.4167 21.7142 0 48.5 0C 75.2858 0 97 11.4167 97 25.5Z"/>
<path id="path38_fill" d="M 0.00496273 0.0112981C 7.16603 23.5929 82.2561 29.4442 101.428 0.0114532C 102.015 -0.89056 96.5536 51.7849 96.0677 52.6714C 82.4623 77.4943 16.3304 74.366 5.3647 53.7351C 3.66842 50.5437 -0.156599 -0.520728 0.00496273 0.0112981Z"/>
<path id="path39_fill" d="M 0.00418046 0.00963137C 6.03646 20.1123 69.2903 25.1005 85.4398 0.00976355C 85.9347 -0.759182 81.3341 44.1454 80.9248 44.9011C 69.4639 66.0621 13.7563 63.3953 4.51907 45.8079C 3.09018 43.0873 -0.131914 -0.443908 0.00418046 0.00963137Z"/>
<path id="path40_fill" d="M 0.00544197 0.396142C 6.63129 25.9265 75.1554 31.8774 92.8941 0.0123255C 93.4377 -0.964232 88.7658 56.4482 88.3163 57.408C 75.7276 84.2823 14.5384 80.8955 4.3923 58.5596C 2.8228 55.1045 -0.144045 -0.179851 0.00544197 0.396142Z"/>
<path id="path41_fill" d="M 107 41.4389C 107 64.325 83.0472 82.8779 53.5 82.8779C 23.9528 82.8779 0 64.325 0 41.4389C 0 18.5528 23.9528 0 53.5 0C 83.0472 0 107 18.5528 107 41.4389Z"/>
<path id="path42_fill" d="M 106.637 37.0577C 106.637 57.5241 82.7657 74.1154 53.3186 74.1154C 23.8716 74.1154 0 57.5241 0 37.0577C 0 16.5913 23.8716 0 53.3186 0C 82.7657 0 106.637 16.5913 106.637 37.0577Z"/>
<path id="path43_fill" d="M 93.7079 32.7968C 93.7079 50.91 72.7307 65.5936 46.854 65.5936C 20.9772 65.5936 0 50.91 0 32.7968C 0 14.6836 20.9772 0 46.854 0C 72.7307 0 93.7079 14.6836 93.7079 32.7968Z"/>
<path id="path44_fill" d="M 89.5058 26.2375C 89.5058 40.728 69.4692 52.4749 44.7529 52.4749C 20.0366 52.4749 0 40.728 0 26.2375C 0 11.7469 20.0366 0 44.7529 0C 69.4692 0 89.5058 11.7469 89.5058 26.2375Z"/>
<path id="path45_fill" d="M 74.3781 23.0636C 74.3781 35.8012 57.728 46.1271 37.189 46.1271C 16.6501 46.1271 0 35.8012 0 23.0636C 0 10.3259 16.6501 0 37.189 0C 57.728 0 74.3781 10.3259 74.3781 23.0636Z"/>
<path id="path46_fill" d="M 74.3781 20.7361C 74.3781 32.1883 57.728 41.4721 37.189 41.4721C 16.6501 41.4721 0 32.1883 0 20.7361C 0 9.28385 16.6501 0 37.189 0C 57.728 0 74.3781 9.28385 74.3781 20.7361Z"/>
<path id="path47_fill" d="M 0.00872427 0.00432115C 2.67925 8.4511 10.4992 12.8656 10.8807 13.0576C 11.094 13.1649 13.7371 68.0714 13.551 67.9581C 6.303 63.543 4.96793 59.1276 4.39543 58.1674C 2.45321 54.9098 -0.17063 -0.562971 0.00872427 0.00432115Z"/>
<path id="path48_fill" d="M 0 2.75942C 0 1.23544 1.23544 0 2.75942 0L 14.9309 0C 16.4549 0 17.6903 1.23544 17.6903 2.75942C 17.6903 4.28341 16.4549 5.51885 14.9309 5.51885L 2.75943 5.51885C 1.23544 5.51885 0 4.28341 0 2.75942Z"/>
<path id="path49_fill" d="M 4 2C 4 3.10457 3.10457 4 2 4C 0.895431 4 0 3.10457 0 2C 0 0.895431 0.895431 0 2 0C 3.10457 0 4 0.895431 4 2Z"/>
</defs>
</svg>
